<?xml version="1.0" encoding="UTF-8" standalone="no"?>
<!-- Created with Inkscape (http://www.inkscape.org/) -->

<svg
   xmlns:dc="http://purl.org/dc/elements/1.1/"
   xmlns:cc="http://creativecommons.org/ns#"
   xmlns:rdf="http://www.w3.org/1999/02/22-rdf-syntax-ns#"
   xmlns:svg="http://www.w3.org/2000/svg"
   xmlns="http://www.w3.org/2000/svg"
   version="1.1"
   width="898.75"
   height="445"
   id="svg2"
   xml:space="preserve"><metadata
     id="metadata8"><rdf:RDF><cc:Work
         rdf:about=""><dc:format>image/svg+xml</dc:format><dc:type
           rdf:resource="http://purl.org/dc/dcmitype/StillImage" /><dc:title></dc:title></cc:Work></rdf:RDF></metadata><defs
     id="defs6" /><g
     transform="matrix(1.25,0,0,-1.25,0,445)"
     id="g10"><path
       d="m 693.675,355.5 c -21.58882,-10.67368 -21.1915,-44.09257 -47.425,-52.575 -35.79273,-16.4833 -76.4731,-18.9563 -115.0035,-25.13125 -52.52714,-3.56339 -105.45202,-2.37745 -157.97775,0.2375 -3.84198,0.19127 -1.425,27.28428 -3.72775,31.4295 -2.82289,5.08151 -6.88448,5.54565 -6.8917,7.72237 -0.0234,7.06769 20.0886,10.4486 21.3007,15.04188 6.14751,23.29607 -44.66175,18.05762 -51.14013,12.711 -12.45642,-10.28031 12.08192,-18.65203 11.5083,-28.30182 -0.16839,-2.83272 -8.58769,-3.98938 -8.56817,-8.90918 0.1284,-32.36939 -0.0186,-32.7445 -40.9511,-31.40293 -40.93247,1.34157 -116.4985,2.68791 -174.7561,3.1689 -28.160576,3.65469 -57.19581,-1.21231 -83.730717,-1.03705 -14.27302,2.1195 -18.238937,26.35069 -33.187083,5.97108 -5.7797246,-15.00108 -3.41210299,-54.0672 19.75,-36.325 13.434202,21.68525 40.819568,1.28382 61.757192,5.58472 16.529818,0.26499 33.407228,1.3979 15.252336,-16.79722 C 88.243472,177.52779 96.4376,116.45961 93.613864,56.492096 95.023032,28.434624 120.07816,9.04696 146.35645,5.167336 193.15299,-1.087736 240.8319,2.79148 287.92187,3.779688 325.98672,5.8216 364.0877,4.076344 402.16525,5.5156 445.4666,4.642824 488.80429,3.292768 532.02569,1.433944 c 27.27542,-3.8252 62.46525,4.268976 71.13818,34.147264 12.81611,33.78308 8.23462,70.615322 10.04187,105.930332 -2.22106,31.50095 -0.82028,64.32994 -9.68074,94.71342 -1.34562,16.7487 34.99256,-4.29562 45,-11.6 27.54842,-12.43242 24.87094,-53.53623 50.65762,-63.325 18.73257,17.10404 15.00354,48.18454 19.06492,72.00774 0.77152,38.60188 1.11024,79.41314 -14.79492,115.30255 -1.69178,3.87022 -5.42204,6.8892 -9.77762,6.88975 z M 693.1,342.55 c 12.4769,-19.23073 11.0959,-45.16217 14.76375,-67.56878 2.31043,-32.44767 -0.53807,-65.54851 -8.13893,-97.10486 -14.51649,-2.79866 -20.51303,39.42183 -21.08145,56.3877 -0.87758,10.57959 -0.41354,51.19386 2.48163,46.16094 0.93423,-24.29614 -7.22738,-62.52864 10.7057,-78.15834 6.09528,16.29643 -9.30866,45.73612 -1.0807,60.35834 -0.86718,-10.6885 2.00316,-53.78379 10.35038,-23.45 -0.27178,15.94431 5.01006,41.4076 -9.69263,45.49766 2.56967,15.00395 6.53983,32.26883 -5.78275,36.55234 2.32987,6.9679 1.83206,15.92686 7.475,21.325 z m -334.675,-3.1 c 24.0179,-8.07051 -35.40462,-9.81399 -6.78747,-1.30142 l 3.4002,0.84572 z m -5.175,-18.225 c 5.40909,-2.14868 -0.7681,-12.987 -0.52462,-3.2125 z m 319.2,-13 c -4.09423,-28.00526 -5.86128,-56.58064 -2.49177,-84.81406 -18.59633,6.57328 -46.56387,31.06801 -74.50823,30.61406 -8.72015,13.78806 -51.76086,18.96816 -15.10183,22.08066 31.88469,5.24319 67.31311,9.93762 92.10183,32.11934 z M 355.125,303.75 c 17.87484,-9.73323 8.35531,-37.18838 10.66733,-58.0125 1.6153,-14.54882 -8.86794,-82.73103 2.42054,-91.69974 9.74997,-7.74637 -31.4871,-13.69648 -25.46287,-1.81276 12.03264,23.73623 4.79949,80.33007 4.63738,88.75459 -0.21949,11.40666 -1.84086,21.67668 -2.55802,31.80179 -0.72661,10.25853 -1.30522,20.392 2.92064,30.84362 0.45371,1.12214 2.57462,0.72167 3.89582,0.73029 1.17712,0.008 2.18109,-0.37002 3.47918,-0.60533 10e-6,0 0,4e-5 0,4e-5 z M 12.95,282.825 C 23.393008,275.33681 7.3099012,245.81294 10.212556,272.30469 10.92123,275.48898 8.6194296,281.82641 12.95,282.825 z m 14.175,-9.35 c 18.548274,-0.79674 12.073816,-12.42207 -1.880095,-8.12526 -0.98942,2.59416 -1.847471,7.49552 1.880095,8.12526 z m 55.7,-0.9 c 59.43258,-0.15742 119.16638,1.09516 178.2873,-3.40801 26.2405,-1.99871 80.6377,1.32325 80.6377,-5.14199 0,-12.03559 -30.4421,-6.0981 -73.24241,-5.56191 -42.80031,0.53619 -133.8414,0.50462 -200.63879,4.14941 -23.273593,6.92593 6.267726,13.31862 14.9562,9.9625 z m 291.05,-2.2 c 41.9227,-2.83427 84.17047,-2.9408 126.2208,-2.93047 29.7647,1.10682 66.81287,5.85237 87.1542,-21.26953 17.51554,-25.79276 13.21111,-59.42955 16.77802,-89.13726 -1.84457,-40.26945 3.44063,-82.443028 -10.8866,-120.913324 C 579.37986,7.659264 544.7872,7.825176 517.77282,10.33828 469.41558,12.8284 420.9285,12.52308 372.53695,13.688472 309.87573,13.039848 247.17856,9.884176 184.53766,10.660384 c -28.60312,0.443248 -67.54621,3.006512 -78.49516,35.017688 -5.22468,26.335352 0.0278,53.506168 -3.10279,80.199628 -1.54712,34.47824 0.62435,69.2185 4.11029,103.4473 0.69324,15.18653 34.04486,32.64486 12.15,10.575 -15.34112,-29.95854 -8.15986,-65.11214 -10.00701,-97.60462 0.68815,-31.72744 0.93907,-63.620212 3.15701,-95.19538 11.0069,-30.677936 49.46392,-31.708568 76.94518,-29.935528 61.65236,1.52348 123.38319,0.438184 185.04882,2.593928 46.77552,0.577424 93.44138,-1.546368 140.17647,-2.700464 25.32196,0.626216 58.35019,-5.961864 73.87953,19.767064 14.89262,35.689888 9.3391,75.39977 11.14338,113.01875 -4.4521,26.9574 -1.02548,55.36918 -9.56279,81.44725 -11.91801,28.54556 -45.48073,32.22821 -72.40672,28.8787 -48.57788,-1.48544 -97.75991,-1.76421 -145.97387,1.6803 -4.17338,1.8695 -2.57513,9.47787 2.275,8.525 z m 9.375,-17.35 c 54.72586,-1.745 109.44638,-1.82251 164.2,-0.7 31.34874,-3.53439 39.34127,-36.82368 39.74346,-63.00538 5.71616,-40.98634 4.0137,-82.77015 -0.50597,-123.763172 C 586.2659,33.34588 553.68397,24.381712 527.41178,26.840824 439.78048,28.0482 352.08397,29.447664 264.51013,25.571872 231.90309,27.386 199.15673,24.06324 166.675,26.725 c -32.12826,-3.949616 -53.97998,23.899976 -45.30741,54.560352 -1.99827,44.483978 -3.75697,89.052578 -0.60372,133.534778 3.54529,45.13391 53.98795,37.96581 85.81097,37.36034 42.0462,-1.47209 110.37737,-1.16962 126.20016,-2.15547 9.02672,-0.56242 6.17508,-17.46889 6.69704,-27.79021 0.98208,-19.42004 -2.37059,-41.45328 -0.34704,-59.70979 -26.30484,-7.40601 -0.81895,-32.04688 22.74883,-24.83997 14.09277,4.30949 43.34417,15.66389 23.16267,27.23197 -1.82352,1.04525 -7.1206,0.80095 -8.99843,3.15998 -8.05881,10.1239 -1.53346,40.56297 -2.45421,54.43591 -0.49712,7.49003 -6.50172,32.96514 9.66614,30.51211 z M 194.675,107.775 c -6.28704,-5.1347 7.53935,-3.50319 0,0 z"
       id="path14"
       style="fill:#000000;fill-opacity:1;fill-rule:nonzero;stroke:none" /><path
       d="m 540,248.975 c -11.80642,-0.52516 -18.30782,-12.18068 -23.27553,-21.43157 -2.07055,-5.14643 -7.54383,-15.60782 -10.26008,-4.83357 -4.13477,7.19632 -6.67242,16.62188 -14.24891,20.86748 -7.7743,1.82936 -18.2257,3.56597 -23.98326,-3.51775 -4.29073,-5.44995 -8.86654,-14.40942 -16.26444,-7.10705 -9.06627,5.70455 -19.11948,9.51684 -29.65438,11.50702 -12.8215,4.0402 -29.41161,1.51704 -36.58186,-11.01278 -4.4882,-7.18693 -4.64688,-17.07424 1.83356,-23.02041 -4.15375,-8.7327 -5.43556,-18.83045 -10.49122,-27.26465 -6.35879,-6.4381 4.82934,-18.07136 7.83825,-7.47422 0.56187,7.4302 5.39905,13.4414 7.12681,20.59639 1.31046,6.73241 10.88235,14.46515 2.57398,20.16924 -6.67678,4.87635 -2.72916,14.42056 3.37712,17.88686 6.98209,4.57123 16.07176,2.8372 23.86468,2.05305 11.9183,-1.94628 22.62917,-8.35194 32.08658,-15.56274 3.76901,-6.79578 -0.94164,-15.98701 -5.91736,-20.94852 -5.20459,-5.04527 -13.8555,-10.68384 -11.43444,-18.99882 3.20898,-9.04795 9.96747,-18.08494 6.9355,-28.15796 -1.30823,-9.7769 -11.56713,-18.8263 -21.53996,-17.60225 -9.64235,1.32479 -18.83723,5.08849 -27.92645,8.04131 -8.23297,-6.21695 7.62287,-10.72132 12.60354,-12.55156 8.83213,-3.49212 18.62409,-5.02082 27.78186,-1.97986 7.54435,4.57222 14.31023,11.62627 17.63611,19.87093 3.04889,10.87308 -1.22348,22.10145 -5.9551,31.82143 0.90625,8.38826 10.61122,13.97238 15.68305,20.47871 12.86875,-0.47089 13.97925,-16.75897 17.74952,-26.24238 3.77379,-10.18052 7.41169,-20.43843 11.73165,-30.39053 4.58978,-10.46565 19.08617,-14.4005 28.19028,-7.57939 7.85461,5.50959 5.22663,15.78129 5.7705,23.42109 6.07266,-2.53836 9.89615,-9.81436 15.57134,-13.67952 6.75881,-6.00311 17.9198,-7.28346 24.70747,-0.59724 6.15608,4.94943 14.47029,9.91504 15.39623,18.51184 0.0359,10.02036 -10.89141,10.83172 -18.31254,11.23992 -8.43224,2.79934 -13.45378,11.0763 -20.61536,16.01157 -9.14895,6.04251 -3.40357,16.51157 2.71644,22.22359 4.88818,8.39746 13.0418,17.90863 9.15,28.25074 -1.48229,5.8956 -8.79443,6.73587 -13.86358,7.0016 z m 0.05,-9.375 c 10.35465,-1.96747 0.52678,-14.16226 -2.96342,-19.12142 -5.43016,-7.11596 -12.05408,-15.50682 -10.21968,-25.0136 4.64228,-10.83634 16.17162,-15.99012 23.6431,-24.5392 4.08034,-6.59052 16.50981,-2.46511 18.06261,-8.37824 -3.60313,-5.15865 -9.14595,-11.94815 -16.01935,-11.13777 -11.03229,2.85305 -14.45728,15.52034 -23.79908,20.95898 -5.00276,6.32484 -19.09496,7.12963 -17.08848,-4.06011 0.0697,-7.92792 7.92582,-20.13473 -1.8265,-24.99302 -10.09574,-2.21234 -12.65634,12.58498 -16.73131,19.42804 -4.74418,10.63508 -7.06737,22.10572 -10.25599,33.21259 -2.00028,9.0173 -12.9337,10.36822 -16.64477,16.6123 -0.2615,8.49654 2.5273,20.18156 12.36494,21.93106 8.44805,3.70306 13.58815,-5.4205 17.25293,-11.42461 3.22066,-7.49702 9.27499,-25.31531 19.60509,-15.32374 9.48842,9.14564 11.4552,24.35813 22.9106,31.59129 L 540.05,239.6 z"
       id="path36"
       style="fill:#000000;fill-opacity:1;fill-rule:nonzero;stroke:none" /><path
       d="m 178.225,244.875 c -7.81108,-0.10453 -15.77218,0.29486 -22.71923,-3.8678 -7.80441,-4.25962 -10.5473,-13.73809 -15.26405,-20.93083 -3.70274,-7.87716 0.40014,-15.71199 6.09486,-20.54981 -0.1807,-9.41122 -4.06893,-18.35231 -4.5612,-27.80156 -0.59744,-9.3857 -2.307,-19.17579 0.23439,-28.38809 2.18952,-8.94362 12.69074,-9.02518 20.11249,-8.61069 7.98977,0.0853 17.65732,3.28158 19.01312,12.33784 -0.31916,5.00392 3.77151,8.47684 5.31975,1.67735 2.27765,-9.24789 8.94321,-18.81939 19.05107,-20.14844 8.0983,-1.54825 15.55836,2.98689 22.662,6.16789 8.69002,2.98995 9.51239,14.04377 1.00711,17.94031 -6.81189,4.54822 -11.18291,12.00113 -11.80085,20.17989 -4.1786,6.78879 -4.44872,14.68718 3.11979,19.53925 2.86251,6.48798 8.29126,8.87906 14.23307,3.92713 8.13121,-4.78204 9.8295,-14.70063 15.42314,-21.65252 4.36533,-7.5954 8.86084,-15.10224 14.37468,-21.94761 5.05833,-4.86497 4.37499,-14.05045 11.46158,-16.6725 6.54604,-0.36128 15.25008,1.26185 19.13828,7.25019 -0.5235,6.56007 6.40411,9.27523 8.34545,2.22031 3.88811,-7.8948 18.75666,-7.84713 20.00973,1.67031 0.45203,7.49979 -6.43518,4.14331 -9.72351,1.61251 -6.97866,4.80497 -10.04229,14.95007 -18.30667,19.29687 -9.21689,1.17918 -6.62117,-11.29443 -7.27172,-17.2149 -2.15108,-8.45571 -14.56286,-4.48047 -14.44363,3.77576 -6.21087,8.85295 -12.32915,17.86 -17.62991,27.33601 -5.30773,7.12251 -6.40527,17.78943 -15.29344,21.76407 -8.465,0.71102 -14.22265,7.58495 -9.27565,15.6541 3.57164,5.78794 7.81365,14.09607 15.20267,14.78457 6.1701,-3.48911 10.02368,-10.21349 14.05145,-15.94457 4.91836,-8.1489 9.54533,-17.10155 17.83523,-22.35504 7.10866,-2.75082 9.63291,12.29492 15.93694,6.29123 3.58056,-6.50711 13.45026,-11.71677 16.64857,-1.68185 5.11122,10.22298 5.55529,21.99304 9.66006,32.4834 2.63879,7.10157 18.73831,-3.43865 13.79704,8.27753 -5.06685,3.44529 -13.40523,4.22879 -18.73519,0.50283 -4.8488,-5.62269 -3.96327,-13.8234 -7.04132,-20.3622 -1.22733,-5.10813 -1.91808,-21.91284 -9.58092,-13.00644 -4.54324,6.59931 -14.42746,8.4215 -16.61457,-1.23204 -7.36251,-3.36108 -10.10955,10.9463 -14.76704,15.30976 -4.91174,7.47612 -10.60114,14.68596 -18.10357,19.71778 -9.56962,1.57181 -18.03698,-6.04937 -22.4485,-13.7668 -4.38944,-8.83892 -9.18724,6.69137 -14.05817,8.96836 -6.24465,6.21698 -15.80497,6.25443 -24.04077,7.21003 -3.67909,0.22946 -7.36727,0.27852 -11.05256,0.23841 z m -3,-8.85 c 10.51862,-1.26552 22.0387,1.05594 31.6,-4.6 6.18262,-6.68495 13.36892,-15.7662 9.625,-25.4 -1.45878,-6.71169 -6.7189,-11.33559 -10.94425,-16.3 -4.41377,-7.88333 0.66346,-16.38907 2.65261,-24.17447 2.38869,-7.88245 7.37515,-14.81103 14.25489,-19.36303 3.39039,-6.17257 -9.83267,-8.25754 -14.61607,-9.06328 -9.26185,3.5764 -13.14765,14.86758 -15.6866,23.8414 -2.07616,7.44887 -15.09897,11.31759 -17.44183,1.97168 -1.79241,-7.03119 -0.88673,-18.65864 -11.01733,-18.83605 -6.48577,-0.37843 -14.48213,0.33601 -12.7928,9.08608 -1.43151,14.87059 3.00393,29.36469 6.09138,43.73767 1.86389,7.26206 -2.44384,11.99506 -7.4,15.8 -0.81279,7.82076 5.08345,15.45727 10.62447,20.11887 4.70499,2.24256 10.04351,2.11519 15.05053,3.18113 z"
       id="path38"
       style="fill:#000000;fill-opacity:1;fill-rule:nonzero;stroke:none" /><path
       d="m 533.25,166.5625 c -2.91748,-0.0134 -5.73438,0.48438 -7.6875,2.90625 -3.375,7.25 -8.65625,16.375 -3.65625,24.625 8.875,3.375 18.78,0.75 25.53125,-5.125 3.99875,-3.5 1.49875,-9.5 1,-13.75 -2.25,-3.875 -6.12625,-6.625 -10,-8.375 -1.64062,-0.0937 -3.43701,-0.27319 -5.1875,-0.28125 z m 0.25,11.125 c 1.59023,-0.12476 2.64062,1.45312 3.40625,2.65625 0.87625,2.25 -1.22,3 -2.59375,3.875 -1.25,0 -2.65625,0.125 -3.03125,-1.25 0,-1.875 -0.34375,-4.25 1.53125,-5.125 0.24984,-0.0937 0.46032,-0.13843 0.6875,-0.15625 z"
       transform="matrix(0.8,0,0,-0.8,0,356)"
       id="path44"
       style="fill:#000000;fill-opacity:1;fill-rule:nonzero;stroke:none" /><path
       d="m 233.6875,166.84375 c -2.33166,0.005 -4.64883,0.28906 -6.875,0.875 -3.25125,2.25 -5.53,5.5 -6.65625,9 -1.75,8.125 0.125,16.125 4.5,22.5 3.50125,2.875 8.875,2.125 13.25,1.75 6.25,-3.25 13.03,-6.125 16.53125,-12.875 1.75,-5.25 -2.90625,-8.625 -4.28125,-12.875 -0.74875,-1.375 -1.25,-2.75 -2.375,-3.875 -3.86719,-3.09375 -8.96409,-4.51175 -14.09375,-4.5 z m 0.46875,11.46875 c 2.51137,-0.0991 4.59375,1.95312 6.125,4.03125 0.625,1.625 0.155,3.625 -0.84375,4.875 -2,1.125 -3.62625,2.75 -6.375,2.125 -2.00125,-1.125 -2.03125,-3.5 -2.65625,-5.5 0,-2.125 0.90625,-4.125 2.65625,-5.375 0.37484,-0.10937 0.73498,-0.14209 1.09375,-0.15625 z"
       transform="matrix(0.8,0,0,-0.8,0,356)"
       id="path46"
       style="fill:#000000;fill-opacity:1;fill-rule:nonzero;stroke:none" /><path
       d="m 335.738,199.716 c 1.299,-6 -1.3,-11.5 -1.401,-17.5 0.8,-5.5 -1.5,-10.2 -1.7,-15.6 -0.699,-1.3 -1.6,-2.7 -3.1,-3.1 -1.4,-0.5 -2.2,0.8 -2.9,1.4 1.2,11.4 -1.899,25.2 3.601,35.1 1.099,2.4 5,2.6 5.5,-0.3"
       id="path52"
       style="fill:#000000;fill-opacity:1;fill-rule:nonzero;stroke:none" /><path
       d="m 513.25,224.625 c -0.58749,-0.005 -1.21875,0.0156 -1.84375,0.0937 -4.5,1.125 -5.24875,6.125 -6.875,9.625 -0.24875,5.875 -2.37375,14 1.875,18.875 8.125,5.5 17.90625,0.25 25.15625,-3.625 2.24875,-2.625 2.125,-7 1.25,-10.25 -5.97773,-5.625 -10.75009,-14.64185 -19.5625,-14.71875 z m 3.71875,12.6875 c 0.36922,0.0156 0.74969,0.0937 1.09375,0.28125 1.99875,1.375 3.59375,3.375 4.46875,5.375 0.50125,2 -1.75,2.5 -3,3 -1.625,0.75 -3.62375,0.125 -5.125,-0.625 -2.125,-1.625 -0.74875,-4.5 -0.25,-6.5 0.56344,-0.9375 1.70484,-1.57813 2.8125,-1.53125 z"
       transform="matrix(0.8,0,0,-0.8,0,356)"
       id="path54"
       style="fill:#000000;fill-opacity:1;fill-rule:nonzero;stroke:none" /><path
       d="m 274.538,126.516 c 2.299,-2.3 1.299,-6 3.599,-8.4 3.901,0.5 3.1,5.1 4.6,7.7 0.701,1 1.801,1.6 2.801,1 8,-2.6 4.799,-11.9 8.9,-17.1 1.199,-4.8 4.799,-8.8 4.1,-14.0996 -0.6,-1.2 -1.5,-2.7 -2.901,-3.1 -1.9,0 -3.9,-0.3 -5.3,1.2 -2.299,4 -5.2,9.2996 -10,10.7996 -3,-0.3 -4.899,2 -7,3.8 -2.799,-1.4 -2.6,-5.1 -2.899,-8.2 -1.5,-2.4996 -2.4,-5.6996 -5.5,-7.1996 -1.701,-0.2 -4,-0.6 -5.301,0.8 -3.3,5.7 3,10.3996 3.401,15.9996 1.099,5.5 2.5,10.7 4.299,15.9 0.701,1 1.701,2.3 2.9,2.6 1.9,0.5 3,-0.7 4.301,-1.7"
       id="path58"
       style="fill:#000000;fill-opacity:1;fill-rule:nonzero;stroke:none" /><path
       d="m 682.65625,285.03125 c -2.02891,0.051 -4.0082,0.44531 -5.84375,1.1875 -10.12625,6 -18.50125,16.25 -16.5,28.5 2.37375,7.9995 9.71875,15.125 18.21875,15.875 9.625,2 17.5,-4.6255 22.5,-12 1.12625,-6.875 3.5,-16.125 -0.875,-22.25 -1,-2.75 -3.875,-4.25 -5.375,-6.5 -3.09289,-3.35156 -7.66141,-4.92462 -12.125,-4.8125 z m 0,13.46875 c 1.78776,-0.10254 3.5625,0.375 4.875,1.46875 2.25,4.125 4.65625,10 1.53125,14.375 -2.75125,2.25 -6.28,3.5 -9.90625,2.5 -2.37375,-0.125 -4.375,-2.25 -5.375,-4.25 -1.5,-3.875 0.655,-7.75 3.03125,-10.75 1.26562,-2.10937 3.54521,-3.21191 5.84375,-3.34375 z"
       transform="matrix(0.8,0,0,-0.8,0,356)"
       id="path60"
       style="fill:#000000;fill-opacity:1;fill-rule:nonzero;stroke:none" /><path
       d="m 302.03125,285.34375 c -4.375,1.5 -4.72,6.375 -7.71875,9.25 -4.00125,-1.125 -5.75125,-8.125 -11.125,-7.25 -7.87625,4.125 -5.28125,14.75 -8.40625,22 -1.5,3.625 -2.75,8.625 -6.875,10.125 -4.625,-3 -6.875,-8.125 -9.375,-12.625 -4.375,-5.75 -3.22,-15.875 -12.21875,-17.625 -2.25125,0.25 -4.405,0.875 -6.03125,2.625 -4.5,10.375 -12.5,19.3755 -18.25,29.125 -0.87375,3.375 -0.24875,7.125 2.625,9 6.75,3.125 7.87625,-6.5 12.625,-7.75 4.62625,0.75 9.62625,0.875 14.125,2.125 4.12625,1.25 5.875,8.125 11.375,6.875 4.62625,-0.75 8.625,-1 13.25,-0.625 4.75,-5.125 6.125,-12.125 9.25,-18.25 2.25125,-1.375 3.37625,1.625 5.125,2.375 5.12625,2.375 6.78,-3.75 10.15625,-5.75 5,4.375 2.595,12.25 5.96875,17.375 1.375,2 3.53125,4.375 6.03125,3.375 11.125,-9 -0.28125,-21.25 -1.78125,-31.25 -1.37375,-3.125 -0.84375,-7 -2.71875,-9.875 -1.25,-2.25 -3.53125,-3.5 -6.03125,-3.25 z m -56.4375,16.53125 c 0.74059,-0.0274 3.72335,7.73864 2.65625,8.75 -0.87434,0.82868 -6.53899,-0.18483 -7.625,-1.15625 -0.88826,-0.79453 3.68558,-7.54624 4.96875,-7.59375 z"
       transform="matrix(0.8,0,0,-0.8,0,356)"
       id="path62"
       style="fill:#000000;fill-opacity:1;fill-rule:nonzero;stroke:none" /><path
       d="m 432.78125,285.96875 c -3.52402,0.15115 -6.625,2.28125 -9.875,3.5 -9.75,6.125 -12.72,17.375 -10.71875,28.5 2.125,5.7495 7.75,10.375 13.75,11.125 9,2.875 17.59375,-0.5 23.46875,-7.25 4.375,-7.2495 5.78,-18.125 1.15625,-25.75 -3.62625,-5.5 -9.50125,-8.25 -15.25,-9.875 -0.86742,-0.21094 -1.71802,-0.28488 -2.53125,-0.25 z m 2.1875,13.25 c 0.48263,0.0139 0.95313,0.0469 1.4375,0.125 1.62625,0.375 3,1.75 4,2.75 1.625,4 3.25125,10.75 -0.375,14.375 -2.62375,3.375 -7.72,2.625 -11.34375,1.875 -2.25125,-0.375 -3.78,-2.375 -4.78125,-4.25 -1.25,-3.75 -0.625,-8.375 1.75,-11.375 2.62609,-2.1875 5.93406,-3.59741 9.3125,-3.5 z"
       transform="matrix(0.8,0,0,-0.8,0,356)"
       id="path64"
       style="fill:#000000;fill-opacity:1;fill-rule:nonzero;stroke:none" /><path
       d="m 169.938,122.916 c 0.399,-2.4 0.6,-5.8 -2.4,-6.7 -3.6,-0.5 -6.901,4.6 -9.901,0.7 -0.4,-0.8 0.5,-2 1.5,-2.1 6.1,-1.7 13.6,-4 15.801,-11.1 0.799,-4.4996 -2,-7.8996 -5.301,-10.2996 -5.599,-3.4 -12.9,-0.7 -19.199,-0.5 -2.601,0.5 -4.701,2.9 -6.201,5.1 -0.4,1.2 -0.699,2.7996 -0.199,4.0996 0.799,1.5 2.299,2.2 3.799,2.6 5.4,0.9 8.601,-5.5996 13.9,-2.9 0.5,0.3 0.201,1 0.301,1.5 -5.1,3.4 -11.901,2.9 -17.1,6 -2.9,2.1 -2.5,5.9 -2.101,9.1 0.5,3.1 3.3,5.3 6,6.7 6.3,1.1 16.5,4.7 21.101,-2.2"
       id="path66"
       style="fill:#000000;fill-opacity:1;fill-rule:nonzero;stroke:none" /><path
       d="m 522.738,124.416 c 0.599,-1.9 1.7,-3.9 0.899,-6 -2.6,-3 -7.5,-2.3 -11.3,-2.4 -2.399,-1.9 -1.2,-5.6 -1.2,-8.2 0.2,-5.4 5.4,-14.0996 -1.6,-17.2996 -2.4,-0.1 -4.9,0 -6,2.4 -0.799,4.6 -0.5,9.5996 -1.2,14.1996 -0.399,3 1,7.4 -2.2,8.6 -3.399,0.7 -7.5,-1.6 -9.1,2.2 0,2.2 -0.4,5.3 2.1,6.5 4.601,1.4 8.9,-0.7 13.7,0 5.3,0 11.2,3.2 15.901,0"
       id="path68"
       style="fill:#000000;fill-opacity:1;fill-rule:nonzero;stroke:none" /><path
       d="m 589.46875,288.3125 c -8.97202,0.26779 -17.10937,4.91406 -22.1875,12.53125 -1.625,3.75 0.405,7.5 2.65625,10.25 1.25,2.375 -0.78125,4.25 -1.78125,6 -0.99875,2.625 0.655,4.75 2.40625,6.625 8.62375,6.875 21.99875,8.5 31.875,3.25 3.99875,-2.625 5.74875,-7.25 6,-12 -0.12625,-6.125 -5.90625,-9.625 -10.90625,-11.625 -3.375,-1.25 -8.97,1.5 -10.71875,-2.5 3.87375,-5.625 9.375,3.75 13.75,-1.75 1.25,-1.5 1.46875,-3.375 1.46875,-5.375 -0.375,-3.125 -3.875,-4 -6.25,-4.875 -2.13281,-0.42187 -4.24203,-0.59305 -6.3125,-0.53125 z m -6.5625,25.15625 c 3.62625,0.625 8.03125,-0.5 10.78125,2.375 0.24875,1.75 -1.25,3.25 -2.75,3.625 -3.5,0.375 -7.78125,-0.125 -10.15625,-3 -1,-1.375 0.875,-2.625 2.125,-3 z"
       transform="matrix(0.8,0,0,-0.8,0,356)"
       id="path70"
       style="fill:#000000;fill-opacity:1;fill-rule:nonzero;stroke:none" /><path
       d="m 481.59375,288.4375 c -5.57288,0.0555 -11.46023,2.29688 -15.1875,5.53125 -2.12375,2.75 -3.34375,6.25 -2.34375,9.875 3.62375,5.875 -3.125,10.6255 0,16.25 6.37375,9.375 18.095,10 28.46875,9.25 4.00125,-1.25 6.75125,-5 7.5,-9 0.50125,-4.9995 -0.12375,-10.5 -3.625,-14.375 -3.75,-5.5 -12.34375,-2 -17.96875,-3 -0.375,-0.375 -0.78125,-0.75 -1.15625,-1.125 -0.375,-1.25 0.28,-3.125 1.78125,-3.625 2.75,-0.5 5.99875,-0.625 8.125,1.125 1.74875,0.625 3.46875,-0.375 4.71875,-1.75 0.50125,-1.5 1.875,-3 1,-4.75 -2.84375,-3.17187 -6.97804,-4.4494 -11.3125,-4.40625 z m 1.125,24.78125 c 2.16289,-0.11719 4.32734,0.34375 5.34375,2.375 0.74875,2.125 -1.03125,2.875 -2.40625,3.625 -2.87375,-0.5 -6.37375,0 -8.125,-2.75 -0.37375,-1.25 0.53125,-2.25 1.53125,-2.625 1.07766,-0.28125 2.35852,-0.55469 3.65625,-0.625 z"
       transform="matrix(0.8,0,0,-0.8,0,356)"
       id="path72"
       style="fill:#000000;fill-opacity:1;fill-rule:nonzero;stroke:none" /><path
       d="m 525.5625,290.09375 c -6.5,3.625 -9.405,10.75 -14.15625,16.25 -3.125,6.5 -8.47,12.3755 -7.96875,20 6.99875,9 7.87375,-7.3745 15,-6.25 4.87375,1.625 11.12375,0.9995 15.875,-0.625 9.75,-4.375 10.74875,11.25 19.75,8.375 2.37375,-1 2.59375,-3.5 2.96875,-5.625 -4.375,-8.2495 -13.75,-15.125 -19.5,-22.875 -4,-2.75 -6.095,-9.75 -11.96875,-9.25 z M 526.5,304.75 c 2.80092,-0.2948 4.6707,2.34375 6.3125,4.21875 0.625,1.625 -1.03,2.375 -2.15625,2.375 -2.5,-0.375 -5.74875,1.125 -7.5,-1.125 -0.875,-2.25 1.405,-4.125 2.78125,-5.375 0.19531,-0.0469 0.37577,-0.0741 0.5625,-0.0937 z"
       transform="matrix(0.8,0,0,-0.8,0,356)"
       id="path74"
       style="fill:#000000;fill-opacity:1;fill-rule:nonzero;stroke:none" /><path
       d="m 313.438,100.416 c 1,-2.0996 0.3,-4.6996 -1,-6.4996 -1.101,-0.9 -3,-1.4 -4.301,-0.5 -1.199,0.7 -2.1,1.9 -2.399,3.1 -0.3,1.9 0.399,3.4 1.2,4.7996 1.8,2 5.3,1.8 6.5,-0.9"
       id="path88"
       style="fill:#000000;fill-opacity:1;fill-rule:nonzero;stroke:none" /><path
       d="m 527.938,83.1164 c 0.599,-2.4 0.199,-4.9 -1.401,-6.7 -2.099,-2.2 -5.099,-2.9 -8.2,-2.2 -1.2,0.8 -2.8,1.6 -3.3,3.1 -0.599,3.5 0.6,7.1 3.6,9.2 1.4,1.1 3.601,1.6 5.301,0.7 1.899,-0.9 3.099,-2.1 4,-4.1"
       id="path90"
       style="fill:#000000;fill-opacity:1;fill-rule:nonzero;stroke:none" /><path
       d="m 680.90625,335.78125 c -3.18768,-0.11343 -6.54687,1.17187 -8.375,3.5625 -3.125,2.75 0.03,7.25 -2.59375,9.875 -15.875,1.125 -18.50125,18.875 -25.875,29.125 -1.875,5.625 -10,9.5 -6.875,16.5 9,9.5 12.095,-8.25 19.71875,-9.375 7.875,0 17.03,-1.375 24.03125,1.25 5.25,3 5.49875,9.375 10.25,12 2.875,0.625 6.22,0.375 8.34375,-1.875 1.5,-2.375 4,-5 2.125,-8 -9.24875,-9.75 -18.345,-20.625 -26.09375,-31.5 0,-1.25 -1.25,-2.625 0,-3.625 5.24875,0.5 10.97,-0.25 13.84375,-5.125 0.125,-3.25 1.25,-8 -2.125,-9.875 -1.53125,-1.91406 -3.89569,-2.84927 -6.375,-2.9375 z m -16.3125,33.03125 c 2.10726,-0.14284 4.35938,2.00781 4.5625,3.9375 0.75,3.875 -5.56625,2.51762 -6.8125,2.65625 -1.7275,-1.71825 0.205,-5.25925 0.84375,-6.09375 0.44531,-0.30478 0.91996,-0.46704 1.40625,-0.5 z"
       transform="matrix(0.8,0,0,-0.8,0,356)"
       id="path92"
       style="fill:#000000;fill-opacity:1;fill-rule:nonzero;stroke:none" /><path
       d="m 207.28125,345.84375 c -7.47089,0.18677 -15.32742,1.57031 -22.5,1.5 -3.125,1.5 -4.47,4.75 -4.71875,7.875 2.5,7.75 1.34375,17.375 1.96875,25.5 1.25,5.375 -1.595,12.5 3.65625,16.125 3.125,2.25 6.99875,3.5 10.5,1.25 1.49875,-2.125 0.87375,-5.625 0.625,-8.125 0.3225,-1.93363 -3.40625,-8.875 2.09375,-10.125 4.75125,0.875 9.75125,1.25 13.125,5.375 5.50125,4.5 8.155,12.625 15.40625,14.125 1.875,-0.625 3.96875,-0.625 5.34375,-2.75 2.12625,-7.625 -5.5,-12.375 -9.875,-17.375 -1.25,-5.125 5.53,-4.75 7.15625,-8.75 1.99875,-3.625 2.74875,-9.375 0.625,-13.125 -1.375,-3.375 -4.15625,-6.25 -7.15625,-8.5 -4.86664,-2.57031 -10.43931,-3.14526 -16.25,-3 z m -6.1875,12.34375 c 4.96242,-0.10547 9.99906,0.3125 14.59375,1.15625 2.12375,1 2.97,3.375 2.09375,5.5 -5.625,4.125 -13.625,3.25 -20.75,3 -1.875,-1 -2.59375,-2.875 -2.59375,-4.875 -0.125,-1.75 -0.25125,-3.75 1.75,-4.5 1.62469,-0.15625 3.25211,-0.24609 4.90625,-0.28125 z"
       transform="matrix(0.8,0,0,-0.8,0,356)"
       id="path94"
       style="fill:#000000;fill-opacity:1;fill-rule:nonzero;stroke:none" /><path
       d="m 295.438,75.9164 c 0.399,-2.3 0.399,-5.1 -1,-7 -1.801,-2 -4.4,-0.2 -6.5,0.3 -3.301,0.1 -6.801,0.2 -8.601,-2.9 -0.899,-6.6 0.201,-13.1 2.9,-18.5 -0.1,-2.2 0.4,-4.9 -1.9,-6 -2.299,-0.8 -5.299,-0.6 -7.2,0.7 -5.3,6.2 -2.9,15.6 -3.9,23.6 -2.9,3.7 -7.699,-0.2 -11.699,1.4 -2.301,0.8 -6,-0.3 -6.5,3.1 -0.5,2.1 -0.5,4.8 1.9,5.8 9.199,0.4 19.399,-0.1 28.1,2.4 5.099,1.2 10.5,0.2 14.4,-2.9"
       id="path96"
       style="fill:#000000;fill-opacity:1;fill-rule:nonzero;stroke:none" /><path
       d="m 464.59375,346.4375 c -2.96094,-0.0156 -5.96875,0.0312 -8.9375,0.0312 -3.125,0.25 -6.37375,0.375 -8.75,2.75 -1.25,2 -1.125,4.625 -1.125,7.125 2.62625,10.75 2.155,22.625 3.90625,33.625 0.74875,2.625 0.71875,5.875 3.21875,7.5 2.62625,0.875 5.28,0.125 7.03125,-2.125 3.87375,-4.625 -1.75125,-12.375 3.5,-16.125 10.49875,-1.25 24.595,1.625 29.46875,-10.875 0.875,-5.625 0.12625,-12 -4,-16.5 -6.84375,-4.6875 -15.42969,-5.35937 -24.3125,-5.40625 z m 0.125,10.84375 c 3.67706,0.0668 7.6493,2.41406 11.6875,1.8125 1.25,0.625 2.78,1.5 3.53125,3 1,2.375 -1.40625,4 -3.03125,4.75 -5.37375,0.625 -10.99875,4.375 -16.5,1.25 -0.625,-2.75 -2.59375,-6.125 -0.46875,-9 1.52305,-1.40625 3.10986,-1.84286 4.78125,-1.8125 z"
       transform="matrix(0.8,0,0,-0.8,0,356)"
       id="path98"
       style="fill:#000000;fill-opacity:1;fill-rule:nonzero;stroke:none" /><path
       d="m 236.637,76.6164 c 1.6,-0.7 3.801,-1.5 4.301,-3.6 0.399,-2.3 -0.4,-4.2 -2.4,-5.3 -8.1,-1.5 -16.301,0.9 -24.701,0.8 -0.899,-0.4 -2,-1 -2.399,-2 -0.301,-1.8 0.6,-3.4 2.199,-4.3 5.6,-0.3 12.901,4.3 16.5,-2.1 0.7,-2.2 0.1,-4.8 -2.099,-5.8 -3.801,-0.7 -8.6,-1 -11.801,1.2 -1.5,0.4 -2.5,-0.6 -3.1,-1.7 -0.5,-2 -0.4,-4.6 1.901,-5.5 5.199,-0.5 11.299,-0.2 16.599,0.7 1.5,-0.3 3.1,-0.3 4.301,-1.4 1.299,-1.4 1.399,-3.6 1.199,-5.3 -0.599,-1.3 -1.599,-2.3 -2.9,-2.9 -6.5,-0.1 -13,1.3 -19.699,0.3 -3.701,0.2 -8.301,-1 -10.301,2.8 -2.4,8.2 -0.1,18.2 -2.9,26.2 0,2.3 -0.299,4.8 1.201,6.5 5.199,6.5 13.199,0.7 20.199,2.1 4.5,-0.6 9.4,-0.8 13.9,-0.7"
       id="path100"
       style="fill:#000000;fill-opacity:1;fill-rule:nonzero;stroke:none" /><path
       d="m 586.96875,347.03125 c -3.69469,0.0115 -6.48477,0.24301 -7.4375,0.6875 -1.875,0.875 -4.24875,1.25 -5.375,3.625 -1.37375,11.375 0.875,21.875 2.75,32.375 0.87625,4.75 -1.25,11.125 4.125,13.75 1.875,0.875 3.62625,-0.125 5.375,-0.25 5.75125,-2.75 2.53,-9.75 6.40625,-13.5 11.99875,-3.375 16.96875,9.625 25.71875,15 3.00125,0.875 5.50125,-0.875 8.125,-1.5 7.5,-6.875 -5.875,-10 -6.25,-16.875 3.375,-4.375 8.78,-7.25 8.65625,-13.125 -1.25,-7 -5.75125,-15.375 -13.5,-17.125 -7.82117,-2.0625 -20.46543,-3.08773 -28.59375,-3.0625 z m 6.84375,11.75 c 1.49545,0.0176 2.98438,0.17187 4.34375,0.3125 5.75,1.375 13.125,0.375 16.25,6.25 0.87625,2.5 -1.5,4 -3,4.875 -6.12375,1.625 -12.5,3 -19.5,2.375 -4.74875,-2.125 -4.625,-7.375 -4.875,-12 1.79766,-1.48437 4.28883,-1.8418 6.78125,-1.8125 z"
       transform="matrix(0.8,0,0,-0.8,0,356)"
       id="path102"
       style="fill:#000000;fill-opacity:1;fill-rule:nonzero;stroke:none" /><path
       d="m 438.938,75.4164 c 1.599,-1.2 2,-3.2 1.399,-5 0,-1.5 -1.7,-2.3 -2.8,-2.7 -7.4,-1 -13.799,3 -21.2,1.2 -1.599,-0.8 -1.8,-2.8 -0.899,-4 1.3,-3 4.599,-2.1 7.199,-2.4 3,-0.6 7.4,1.5 8.9,-2.4 0.5,-2.3 0.3,-5 -2.2,-6 -4,-0.9 -9.399,1.1 -12,-2.7 -0.399,-1.6 0.7,-2.9 1.901,-3.6 6.7,-0.7 13.299,0.3 19.7,1 1.899,0.2 3.199,-1.3 4.3,-2.4 1,-1.9 0.5,-4.5 -0.901,-6 -3.8,-2.1 -8.5,-1.9 -13,-2.2 -6.2,0.4 -13.2,-1 -18.7,1.2 -4,3.3 -3.517,10.6641 -3.6,13.2 1.3,7.7 -1.4,14.6 -0.5,22.1 6,5.2 16.1,2.1 24,2.6 2.6,-1 6.201,0.2 8.401,-1.9"
       id="path104"
       style="fill:#000000;fill-opacity:1;fill-rule:nonzero;stroke:none" /><path
       d="m 342.938,73.7164 c -0.901,-6.8 0.399,-14 1.699,-20.6 -0.199,-5.3 -1.699,-10.7 -7,-13.2 -5.399,-4.5 -13.699,-1.6 -19.899,-0.7 -3.8,1.3 -8.101,5.4 -9.101,9.3 0.101,8.9 -2.399,18.2 0.2,26.7 1.3,0.9 3.101,1.2 4.601,0.7 4.5,-2.6 3.3,-8.8 3.8,-13.7 0.599,-4.4 1.099,-8.9 3.099,-12.7 3.3,-4.1 9.401,-2 13.5,-1.2 2.2,1.4 2.101,4 1.7,6.2 -1.299,6.8 -4,14.5 -1.2,21.4 1.3,1.4 3.401,1.7 5.2,1.2 1.401,-0.6 2.8,-2 3.401,-3.4"
       id="path106"
       style="fill:#000000;fill-opacity:1;fill-rule:nonzero;stroke:none" /></g></svg>