<?xml version="1.0" standalone="no"?>
<!DOCTYPE svg PUBLIC "-//W3C//DTD SVG 20010904//EN"
 "http://www.w3.org/TR/2001/REC-SVG-20010904/DTD/svg10.dtd">
<svg version="1.0" xmlns="http://www.w3.org/2000/svg"
 width="700.000000pt" height="700.000000pt" viewBox="0 0 700.000000 700.000000"
 preserveAspectRatio="xMidYMid meet">
<metadata>
Created by potrace 1.14, written by Peter Selinger 2001-2017
</metadata>
<g transform="translate(0.000000,700.000000) scale(0.100000,-0.100000)"
fill="#000000" stroke="none">
<path d="M969 6286 c-103 -27 -188 -101 -238 -206 l-26 -55 0 -2525 0 -2525
33 -67 c38 -78 100 -138 182 -177 l55 -26 2515 -2 2515 -2 63 26 c85 35 154
98 194 181 l33 67 0 2525 0 2525 -27 57 c-37 79 -98 142 -177 181 l-66 32
-2505 2 c-1964 1 -2515 -1 -2551 -11z"/>
</g>
</svg>
