<?xml version="1.0" standalone="no"?>
<!DOCTYPE svg PUBLIC "-//W3C//DTD SVG 20010904//EN"
 "http://www.w3.org/TR/2001/REC-SVG-20010904/DTD/svg10.dtd">
<svg version="1.0" xmlns="http://www.w3.org/2000/svg"
 width="1124.000000pt" height="1124.000000pt" viewBox="0 0 1124.000000 1124.000000"
 preserveAspectRatio="xMidYMid meet">
<metadata>
Created by potrace 1.14, written by Peter Selinger 2001-2017
</metadata>
<g transform="translate(0.000000,1124.000000) scale(0.100000,-0.100000)"
fill="#000000" stroke="none">
<path d="M1483 10812 c-8 -5 11 -24 55 -57 37 -27 78 -63 91 -78 14 -16 31
-36 39 -43 34 -35 181 -239 206 -287 15 -28 42 -77 61 -106 19 -30 51 -93 71
-140 20 -48 49 -113 65 -146 44 -95 126 -319 158 -435 10 -36 35 -122 54 -192
37 -132 102 -467 111 -573 3 -33 8 -87 11 -120 2 -33 7 -114 10 -180 3 -66 7
-160 10 -210 2 -49 7 -164 10 -255 3 -91 7 -219 10 -285 3 -66 7 -230 10 -365
3 -135 7 -319 10 -410 3 -91 7 -406 10 -700 9 -955 22 -1742 30 -1905 3 -49 7
-139 10 -200 3 -60 7 -137 10 -170 2 -33 7 -109 10 -170 4 -60 10 -137 15
-170 5 -33 11 -82 14 -110 14 -117 18 -151 21 -175 2 -14 14 -92 25 -175 31
-224 48 -310 110 -557 56 -220 109 -387 153 -473 148 -293 337 -504 657 -735
162 -118 306 -197 605 -335 431 -199 1151 -390 1660 -440 277 -27 590 -27 860
1 344 35 619 95 965 211 419 141 861 386 1189 658 113 94 326 303 403 395 209
250 401 576 506 857 57 155 124 411 148 573 3 19 8 46 11 60 3 14 7 153 8 310
3 288 -8 478 -38 640 -8 41 -22 118 -31 170 -15 83 -109 385 -176 565 -21 58
-146 328 -172 372 -105 179 -258 406 -376 557 -184 238 -310 356 -490 459
-358 206 -795 373 -1128 431 -146 26 -475 26 -600 2 -12 -2 -57 -7 -100 -11
-43 -4 -102 -13 -130 -21 -27 -8 -79 -18 -115 -24 -105 -15 -291 -55 -504
-108 -110 -27 -227 -55 -260 -62 -33 -6 -87 -20 -120 -30 -104 -32 -283 -80
-297 -80 -11 0 -14 31 -12 163 1 89 5 401 8 692 4 292 9 550 11 575 4 51 13
132 21 205 17 152 71 427 149 755 18 80 50 219 70 310 20 91 56 227 80 302 46
142 152 374 225 494 24 38 51 85 62 104 11 19 29 44 39 56 10 11 19 24 19 28
0 20 171 227 270 326 36 36 99 93 140 126 139 113 134 127 -31 89 -63 -15
-127 -29 -144 -31 -16 -3 -91 -16 -165 -29 -132 -24 -164 -28 -265 -40 -74 -8
-238 -23 -255 -23 -8 0 -78 -4 -155 -9 -179 -10 -1028 -10 -1245 0 -175 8
-255 12 -495 21 -321 13 -735 37 -875 51 -19 2 -75 6 -125 10 -49 3 -110 8
-135 10 -25 2 -81 7 -125 10 -44 3 -100 8 -125 10 -25 2 -76 7 -115 10 -38 3
-86 8 -105 10 -19 2 -66 7 -105 10 -128 10 -279 26 -345 35 -79 12 -121 12
-137 2z m4952 -5208 c120 -48 249 -122 316 -182 55 -49 126 -143 187 -248 66
-114 136 -341 156 -509 4 -27 8 -61 11 -75 2 -14 7 -47 10 -75 3 -27 10 -84
15 -125 5 -41 12 -102 15 -135 3 -33 8 -73 10 -90 2 -16 7 -73 11 -125 3 -52
8 -106 11 -120 2 -14 6 -173 8 -355 4 -324 -5 -482 -35 -658 -54 -315 -145
-515 -301 -661 -85 -79 -120 -96 -309 -153 -79 -25 -99 -26 -295 -27 -172 0
-219 3 -258 17 -58 21 -180 81 -221 111 -46 32 -157 145 -203 207 -150 201
-263 546 -313 954 -6 50 -13 104 -15 120 -26 190 -26 1342 0 1509 2 11 6 52
10 91 4 38 13 81 20 95 19 36 170 182 235 226 102 69 288 166 385 199 120 41
207 55 330 51 113 -2 126 -5 220 -42z"/>
<path d="M5990 5151 c-83 -20 -133 -47 -200 -108 -175 -157 -215 -414 -95
-618 84 -145 282 -253 435 -240 151 14 256 61 347 157 252 267 126 712 -228
808 -68 19 -186 19 -259 1z"/>
<path d="M6180 3673 c-41 -6 -143 -44 -175 -66 -61 -42 -148 -133 -170 -178
-25 -47 -49 -134 -60 -206 -16 -114 56 -297 155 -394 33 -32 65 -59 70 -59 6
0 38 -13 73 -30 77 -36 154 -46 232 -30 178 37 307 153 360 324 33 102 37 159
19 240 -26 118 -73 204 -152 278 -62 58 -79 68 -153 92 -82 25 -149 35 -199
29z"/>
</g>
</svg>
