<?xml version="1.0" encoding="utf-8"?>
<!-- Generator: Adobe Illustrator 26.0.2, SVG Export Plug-In . SVG Version: 6.00 Build 0)  -->
<svg version="1.1" id="WITHsecure" xmlns="http://www.w3.org/2000/svg" xmlns:xlink="http://www.w3.org/1999/xlink" x="0px" y="0px"
	 viewBox="0 0 1920 1080" style="enable-background:new 0 0 1920 1080;" xml:space="preserve">
<style type="text/css">
	.st0{fill:#001423;}
</style>
<g>
	<polygon class="st0" points="1319.2,463.2 1321.6,463.2 1321.6,469.6 1323.1,469.6 1323.1,463.2 1325.5,463.2 1325.5,462 
		1319.2,462 	"/>
	<path class="st0" d="M1332.1,462l-1.2,4.2c-0.1,0.2-0.1,0.4-0.1,0.6c0,0.2-0.1,0.4-0.1,0.5c0,0.2-0.1,0.3-0.1,0.4h-0.1
		c0-0.1-0.1-0.3-0.1-0.4c0-0.2-0.1-0.3-0.1-0.5c0-0.2-0.1-0.4-0.1-0.5l-1.2-4.3h-2.3v7.6h1.4v-3.9c0-0.2,0-0.5,0-0.8
		c0-0.3,0-0.6,0-0.8c0-0.3,0-0.5,0-0.7h0.1c0,0.2,0.1,0.4,0.2,0.6c0.1,0.2,0.1,0.5,0.2,0.7c0.1,0.2,0.1,0.4,0.2,0.6l1.3,4.4h1.3
		l1.3-4.4c0.1-0.2,0.1-0.4,0.2-0.7c0.1-0.3,0.1-0.5,0.2-0.7c0.1-0.2,0.1-0.4,0.1-0.4h0.1c0,0,0,0.2,0,0.4c0,0.2,0,0.5,0,0.9
		c0,0.3,0,0.7,0,1v3.9h1.4V462H1332.1z"/>
	<path class="st0" d="M740,519.6c-1.5,3.8-4.9,4.3-6.3,4.3h0c-1.4,0-4.8-0.5-6.3-4.4L709,471.6c-4-10.3-13.7-17-24.7-17
		c-11,0-20.7,6.7-24.7,17l-18.4,47.9c-1.5,3.9-4.9,4.4-6.3,4.4h0c-1.4,0-4.8-0.4-6.3-4.3l-26.1-65.1h-21.2l29,72.4
		c4.1,10.1,13.7,16.6,24.6,16.6h0.2c11-0.1,20.6-6.7,24.5-17l18.4-47.9c1.5-3.9,4.9-4.4,6.4-4.4c1.4,0,4.8,0.4,6.4,4.4l18.4,47.9
		c3.9,10.2,13.6,16.9,24.5,17h0.2c10.9,0,20.5-6.5,24.6-16.6l29-72.4h-21.2L740,519.6z"/>
	<polygon class="st0" points="850.2,542.9 871.4,542.9 906.8,454.4 885.6,454.4 	"/>
	<polygon class="st0" points="978,474.1 978,474.1 1027.2,474.1 1027.2,542.9 1046.9,542.9 1046.9,474.1 1096,474.1 1096,454.4 
		985.9,454.4 	"/>
	<polygon class="st0" points="1194.4,507.9 1194.4,507.9 1273,507.9 1273,507.9 1273,542.9 1292.7,542.9 1292.7,507.9 1292.7,488.2 
		1292.7,454.4 1273,454.4 1273,488.2 1194.4,488.2 1194.4,454.4 1174.7,454.4 1174.7,488.2 1174.7,507.9 1174.7,542.9 1194.4,542.9 
			"/>
	<path class="st0" d="M1326.8,454.4c-6.3,0-11.4,5.1-11.4,11.4c0,6.3,5.1,11.4,11.4,11.4c6.3,0,11.4-5.1,11.4-11.4
		C1338.2,459.6,1333.1,454.4,1326.8,454.4z M1326.8,475.6c-5.4,0-9.7-4.4-9.7-9.7s4.4-9.7,9.7-9.7c5.4,0,9.7,4.4,9.7,9.7
		S1332.2,475.6,1326.8,475.6z"/>
	<path class="st0" d="M1027.5,605c-0.7-0.1-6.1-0.9-7-1c-5.5-0.9-6.9-1.9-6.9-4.1c0-2.3,2-3.8,8.3-3.8c5.8,0,8.2,1.3,8.9,2.7
		c0.3,0.6,0.3,2,0.3,2.3l6.3,0c0-0.7-0.1-2.7-0.5-4c-1.5-4.5-6.3-6.6-14.8-6.6c-10.2,0-14.8,4-14.8,9.4c0,5.7,3,8.4,10.3,9.5
		c1,0.2,5.9,1,6.7,1.1c5.6,0.9,8,1.8,8,4.6c0,2.9-2.2,4.3-8.7,4.3c-6,0-9.3-0.7-9.9-3c-0.2-0.9-0.2-1.6-0.2-2.2l-6.4,0
		c0,1.1,0.1,2,0.3,3.4c1.2,5.1,6.1,7,16.2,7c10.8,0,15.1-3.6,15.1-10.1C1038.6,608.8,1035.4,606.2,1027.5,605z"/>
	<path class="st0" d="M1075.4,590.6c-6.3,0-11,2.4-13.9,6.1c-2.2,2.8-3.4,6.3-3.4,10.9c0,4.8,1.1,8.4,3.3,11.2
		c3.3,4.3,8.1,6.1,14.2,6.1c5.2,0,9.1-1.2,11.7-3.1c3.1-2.3,4.9-5.5,4.9-7.7l-6.3,0c0,0.8-0.7,2.4-2.6,3.7c-1.6,1-4.2,1.7-7.6,1.7
		c-3.5,0-6.5-1.1-8.4-2.9c-1.7-1.7-2.7-3.8-2.8-6.4l27.9,0.1c0.5-5-0.4-10.3-2.9-13.5C1086.7,593,1082.2,590.6,1075.4,590.6z
		 M1064.5,605.2c0.2-2.6,1-4.7,2.7-6.1c1.8-1.7,4.4-2.9,8.2-2.9c4,0,6.6,1.2,8.4,2.9c1.6,1.6,2.1,3.7,2.1,6.2L1064.5,605.2z"/>
	<path class="st0" d="M1128.6,596.5c4.1,0,6.9,1.2,8.5,2.9c1.1,1.2,1.6,3.3,1.6,4.4l6.3,0c0-1.4-0.2-4.2-1.6-6.3
		c-2.7-4.3-7-6.8-14.3-6.8c-6.1,0-10.4,1.6-13.6,4.7c-2.8,2.8-4.4,6.9-4.5,12.4c0,6.1,1.7,10.3,4.9,13.1c3,2.7,7,4,12.5,4
		c6,0,10.2-1.6,12.7-4c2.5-2.3,3.7-5.5,3.8-8.4l-6.2,0c-0.1,1.3-0.7,2.9-1.9,4.1c-1.6,1.5-4.1,2.7-8.1,2.7c-3.8,0-6.5-0.9-8.3-2.7
		c-2-1.9-2.8-4.8-2.8-8.8c0-3.6,0.8-6.7,2.7-8.5C1122.3,597.5,1124.8,596.5,1128.6,596.5z"/>
	<path class="st0" d="M1196.3,619l0.1-27.4l-6.5,0l0,21c0,4.2-3.7,6.9-8.7,6.9c-5.5,0-8.8-2.1-8.8-7.4c0-20.3,0-20.5-0.1-20.5
		l-6.5,0c0.1,0.1,0.1,1.7,0.1,22.4c0,7.1,5,11.1,12.6,11.1c4.6,0,9.4-1.1,11.6-4.7l0.2,4.2l6.2,0
		C1196.2,624.5,1196.2,623.9,1196.3,619z"/>
	<path class="st0" d="M1225.5,597.4l0-5.6l-6.4,0l-0.1,32.9l6.5,0l0-17.3c0-6.3,4.4-10,9.9-10c3,0,5.3,0.3,7.3,1l0-6.6
		c-1.4-0.4-3.2-0.7-6.2-0.7C1231.5,591,1226.5,593.7,1225.5,597.4z"/>
	<path class="st0" d="M1276.5,591.1c-6.3,0-11,2.4-13.9,6.1c-2.2,2.8-3.4,6.3-3.4,10.9c0,4.8,1.1,8.4,3.3,11.2
		c3.3,4.3,8.1,6.1,14.2,6.1c5.2,0,9.1-1.2,11.7-3.1c3.1-2.3,4.9-5.5,4.9-7.7l-6.3,0c0,0.8-0.7,2.4-2.6,3.7c-1.6,1-4.2,1.7-7.6,1.7
		c-3.5,0-6.5-1.1-8.4-2.9c-1.7-1.7-2.7-3.8-2.8-6.4l27.9,0.1c0.5-5-0.4-10.3-2.9-13.5C1287.8,593.5,1283.3,591.1,1276.5,591.1z
		 M1265.6,605.6c0.2-2.6,1-4.7,2.7-6.1c1.8-1.7,4.4-2.9,8.2-2.8c4,0,6.6,1.2,8.4,2.9c1.6,1.6,2.1,3.6,2.1,6.2L1265.6,605.6z"/>
</g>
</svg>
